<?xml version="1.0" encoding="UTF-8" standalone="no"?><svg xmlns="http://www.w3.org/2000/svg" xmlns:xlink="http://www.w3.org/1999/xlink" contentStyleType="text/css" height="480px" preserveAspectRatio="none" style="width:746px;height:480px;background:#FFFFFF;" version="1.1" viewBox="0 0 746 480" width="746px" zoomAndPan="magnify"><defs/><g><ellipse cx="239.5" cy="48.6982" fill="#222222" rx="10" ry="10" style="stroke:#222222;stroke-width:1.0;"/><path d="M29,75.5498 L29,115.8154 L172,115.8154 L172,85.5498 L162,75.5498 L29,75.5498 " fill="#FEFFDD" style="stroke:#181818;stroke-width:0.5;"/><path d="M162,75.5498 L162,85.5498 L172,85.5498 L162,75.5498 " fill="#FEFFDD" style="stroke:#181818;stroke-width:0.5;"/><text fill="#000000" font-family="sans-serif" font-size="13" lengthAdjust="spacing" textLength="93" x="35" y="92.6167">&lt;&lt;usecase&gt;&gt;</text><text fill="#000000" font-family="sans-serif" font-size="13" lengthAdjust="spacing" textLength="122" x="35" y="107.7495">create a new room</text><rect fill="#F1F1F1" height="33.9688" rx="12.5" ry="12.5" style="stroke:#181818;stroke-width:0.5;" width="95" x="192" y="78.6982"/><text fill="#000000" font-family="sans-serif" font-size="12" lengthAdjust="spacing" textLength="75" x="202" y="99.8369">create room</text><path d="M20,259.7842 L20,300.0498 L197,300.0498 L197,269.7842 L187,259.7842 L20,259.7842 " fill="#FEFFDD" style="stroke:#181818;stroke-width:0.5;"/><path d="M187,259.7842 L187,269.7842 L197,269.7842 L187,259.7842 " fill="#FEFFDD" style="stroke:#181818;stroke-width:0.5;"/><text fill="#000000" font-family="sans-serif" font-size="13" lengthAdjust="spacing" textLength="93" x="26" y="276.8511">&lt;&lt;usecase&gt;&gt;</text><text fill="#000000" font-family="sans-serif" font-size="13" lengthAdjust="spacing" textLength="156" x="26" y="291.9839">register the chosen card</text><rect fill="#F1F1F1" height="33.9688" rx="12.5" ry="12.5" style="stroke:#181818;stroke-width:0.5;" width="107" x="217" y="262.9326"/><text fill="#000000" font-family="sans-serif" font-size="12" lengthAdjust="spacing" textLength="87" x="227" y="284.0713">choose a card</text><line style="stroke:#000000;stroke-width:1.5;" x1="15" x2="15" y1="12.7451" y2="468.667"/><rect fill="#FAEBD7" height="455.9219" style="stroke:#FAEBD7;stroke-width:1.0;" width="398.5" x="328" y="12.7451"/><path d="M521.5,132.667 L521.5,172.9326 L721.5,172.9326 L721.5,142.667 L711.5,132.667 L521.5,132.667 " fill="#FEFFDD" style="stroke:#181818;stroke-width:0.5;"/><path d="M711.5,132.667 L711.5,142.667 L721.5,142.667 L711.5,132.667 " fill="#FEFFDD" style="stroke:#181818;stroke-width:0.5;"/><text fill="#000000" font-family="sans-serif" font-size="13" lengthAdjust="spacing" textLength="93" x="527.5" y="149.7339">&lt;&lt;usecase&gt;&gt;</text><text fill="#000000" font-family="sans-serif" font-size="13" lengthAdjust="spacing" textLength="179" x="527.5" y="164.8667">add a new user to the room</text><rect fill="#F1F1F1" height="33.9688" rx="12.5" ry="12.5" style="stroke:#181818;stroke-width:0.5;" width="127" x="374.5" y="135.8154"/><text fill="#000000" font-family="sans-serif" font-size="12" lengthAdjust="spacing" textLength="107" x="384.5" y="156.9541">enter to the room</text><rect fill="#555555" height="6" rx="2.5" ry="2.5" style="stroke:#555555;stroke-width:1.0;" width="337.5" x="334" y="236.9326"/><rect fill="#F1F1F1" height="33.9688" rx="12.5" ry="12.5" style="stroke:#181818;stroke-width:0.5;" width="107" x="550.5" y="262.9326"/><text fill="#000000" font-family="sans-serif" font-size="12" lengthAdjust="spacing" textLength="87" x="560.5" y="284.0713">choose a card</text><rect fill="#555555" height="6" rx="2.5" ry="2.5" style="stroke:#555555;stroke-width:1.0;" width="337.5" x="334" y="320.0498"/><path d="M550,344.4014 L550,384.667 L680,384.667 L680,354.4014 L670,344.4014 L550,344.4014 " fill="#FEFFDD" style="stroke:#181818;stroke-width:0.5;"/><path d="M670,344.4014 L670,354.4014 L680,354.4014 L670,344.4014 " fill="#FEFFDD" style="stroke:#181818;stroke-width:0.5;"/><text fill="#000000" font-family="sans-serif" font-size="13" lengthAdjust="spacing" textLength="93" x="556" y="361.4683">&lt;&lt;usecase&gt;&gt;</text><text fill="#000000" font-family="sans-serif" font-size="13" lengthAdjust="spacing" textLength="109" x="556" y="376.6011">reflesh the poker</text><rect fill="#F1F1F1" height="33.9688" rx="12.5" ry="12.5" style="stroke:#181818;stroke-width:0.5;" width="184" x="346" y="347.5498"/><text fill="#000000" font-family="sans-serif" font-size="12" lengthAdjust="spacing" textLength="164" x="356" y="368.6885">reset the chosen card data</text><polygon fill="#F1F1F1" points="438,192.9326,450,204.9326,438,216.9326,426,204.9326,438,192.9326" style="stroke:#181818;stroke-width:0.5;"/><polygon fill="#F1F1F1" points="423,404.667,453,404.667,465,416.667,453,428.667,423,428.667,411,416.667,423,404.667" style="stroke:#181818;stroke-width:0.5;"/><text fill="#000000" font-family="sans-serif" font-size="11" lengthAdjust="spacing" textLength="30" x="423" y="420.4751">reset</text><ellipse cx="438" cy="458.667" rx="10" ry="10" style="stroke:#222222;stroke-width:1.5;fill:none;"/><line style="stroke:#222222;stroke-width:2.5;fill:none;" x1="431.8128" x2="444.1872" y1="452.4798" y2="464.8542"/><line style="stroke:#222222;stroke-width:2.5;fill:none;" x1="444.1872" x2="431.8128" y1="452.4798" y2="464.8542"/><line style="stroke:#000000;stroke-width:1.5;fill:none;" x1="328" x2="328" y1="12.7451" y2="468.667"/><line style="stroke:#000000;stroke-width:1.5;fill:none;" x1="726.5" x2="726.5" y1="12.7451" y2="468.667"/><line style="stroke:#181818;stroke-width:1.0;fill:none;" x1="239.5" x2="239.5" y1="58.6982" y2="78.6982"/><polygon fill="#181818" points="235.5,68.6982,239.5,78.6982,243.5,68.6982,239.5,72.6982" style="stroke:#181818;stroke-width:1.0;"/><line style="stroke:#181818;stroke-width:1.0;" x1="604" x2="604" y1="242.9326" y2="262.9326"/><polygon fill="#181818" points="600,252.9326,604,262.9326,608,252.9326,604,256.9326" style="stroke:#181818;stroke-width:1.0;"/><line style="stroke:#181818;stroke-width:1.0;" x1="604" x2="604" y1="296.9014" y2="320.0498"/><polygon fill="#181818" points="600,310.0498,604,320.0498,608,310.0498,604,314.0498" style="stroke:#181818;stroke-width:1.0;"/><line style="stroke:#181818;stroke-width:1.0;" x1="438" x2="438" y1="326.0498" y2="347.5498"/><polygon fill="#181818" points="434,337.5498,438,347.5498,442,337.5498,438,341.5498" style="stroke:#181818;stroke-width:1.0;"/><line style="stroke:#181818;stroke-width:1.0;" x1="438" x2="438" y1="216.9326" y2="236.9326"/><polygon fill="#181818" points="434,226.9326,438,236.9326,442,226.9326,438,230.9326" style="stroke:#181818;stroke-width:1.0;"/><line style="stroke:#181818;stroke-width:1.0;" x1="465" x2="692" y1="416.667" y2="416.667"/><polygon fill="#181818" points="688,327.5498,692,317.5498,696,327.5498,692,323.5498" style="stroke:#181818;stroke-width:1.0;"/><line style="stroke:#181818;stroke-width:1.0;" x1="692" x2="692" y1="204.9326" y2="416.667"/><line style="stroke:#181818;stroke-width:1.0;" x1="692" x2="450" y1="204.9326" y2="204.9326"/><polygon fill="#181818" points="460,200.9326,450,204.9326,460,208.9326,456,204.9326" style="stroke:#181818;stroke-width:1.0;"/><line style="stroke:#181818;stroke-width:1.0;" x1="438" x2="438" y1="381.5186" y2="404.667"/><polygon fill="#181818" points="434,394.667,438,404.667,442,394.667,438,398.667" style="stroke:#181818;stroke-width:1.0;"/><line style="stroke:#181818;stroke-width:1.0;" x1="438" x2="438" y1="169.7842" y2="192.9326"/><polygon fill="#181818" points="434,182.9326,438,192.9326,442,182.9326,438,186.9326" style="stroke:#181818;stroke-width:1.0;"/><line style="stroke:#181818;stroke-width:1.0;" x1="438" x2="438" y1="428.667" y2="448.667"/><polygon fill="#181818" points="434,438.667,438,448.667,442,438.667,438,442.667" style="stroke:#181818;stroke-width:1.0;"/><line style="stroke:#181818;stroke-width:1.0;" x1="239.5" x2="239.5" y1="112.667" y2="120.8154"/><line style="stroke:#181818;stroke-width:1.0;" x1="239.5" x2="438" y1="120.8154" y2="120.8154"/><line style="stroke:#181818;stroke-width:1.0;" x1="438" x2="438" y1="120.8154" y2="135.8154"/><polygon fill="#181818" points="434,125.8154,438,135.8154,442,125.8154,438,129.8154" style="stroke:#181818;stroke-width:1.0;"/><line style="stroke:#181818;stroke-width:1.0;" x1="469" x2="469" y1="242.9326" y2="246.9326"/><line style="stroke:#181818;stroke-width:1.0;" x1="469" x2="270.5" y1="246.9326" y2="246.9326"/><line style="stroke:#181818;stroke-width:1.0;" x1="270.5" x2="270.5" y1="246.9326" y2="262.9326"/><polygon fill="#181818" points="266.5,252.9326,270.5,262.9326,274.5,252.9326,270.5,256.9326" style="stroke:#181818;stroke-width:1.0;"/><line style="stroke:#181818;stroke-width:1.0;" x1="270.5" x2="270.5" y1="296.9014" y2="306.0498"/><line style="stroke:#181818;stroke-width:1.0;" x1="270.5" x2="469" y1="306.0498" y2="306.0498"/><line style="stroke:#181818;stroke-width:1.0;" x1="469" x2="469" y1="306.0498" y2="320.0498"/><polygon fill="#181818" points="465,310.0498,469,320.0498,473,310.0498,469,314.0498" style="stroke:#181818;stroke-width:1.0;"/><text fill="#000000" font-family="sans-serif" font-size="18" lengthAdjust="spacing" textLength="122" x="110.5" y="29.4531">room master</text><text fill="#000000" font-family="sans-serif" font-size="18" lengthAdjust="spacing" textLength="52" x="501.25" y="29.4531">users</text><!--MD5=[6762949a20c949fb639d4c5129c73dd8]
@startuml
|room master|
start
:create room;
floating note left: <<usecase>>\ncreate a new room
|#AntiqueWhite|users|
:enter to the room;
floating note right:  <<usecase>>\nadd a new user to the room
repeat
fork
|room master|
:choose a card;
floating note left:  <<usecase>>\nregister the chosen card
fork again
|users|
:choose a card;
endfork
:reset the chosen card data;
floating note right:  <<usecase>>\nreflesh the poker
repeatwhile (reset)
end
@enduml

PlantUML version 1.2022.6beta5(Unknown compile time)
(GPL source distribution)
Java Runtime: Java(TM) SE Runtime Environment
JVM: Java HotSpot(TM) 64-Bit Server VM
Default Encoding: UTF-8
Language: en
Country: US
--></g></svg>