<?xml version="1.0" encoding="UTF-8" standalone="no"?><svg xmlns="http://www.w3.org/2000/svg" xmlns:xlink="http://www.w3.org/1999/xlink" contentStyleType="text/css" height="612px" preserveAspectRatio="none" style="width:737px;height:612px;background:#FFFFFF;" version="1.1" viewBox="0 0 737 612" width="737px" zoomAndPan="magnify"><defs/><g><ellipse cx="365.5" cy="16" fill="#222222" rx="10" ry="10" style="stroke:none;stroke-width:1.0;"/><g id="closed"><rect fill="#F1F1F1" height="50" rx="12.5" ry="12.5" style="stroke:#181818;stroke-width:0.5;" width="66" x="332.5" y="556"/><line style="stroke:#181818;stroke-width:0.5;" x1="332.5" x2="398.5" y1="582.2969" y2="582.2969"/><text fill="#000000" font-family="sans-serif" font-size="14" lengthAdjust="spacing" textLength="46" x="342.5" y="573.9951">closed</text></g><path d="M19.5,103 L711.8258,103 A12.5,12.5 0 0 1 724.3258,115.5 L724.3258,129.2969 L7,129.2969 L7,115.5 A12.5,12.5 0 0 1 19.5,103 " fill="#F1F1F1" style="stroke:#F1F1F1;stroke-width:1.0;"/><path d="M7,129.2969 L724.3258,129.2969 L724.3258,466.7969 A12.5,12.5 0 0 1 711.8258,479.2969 L19.5,479.2969 A12.5,12.5 0 0 1 7,466.7969 L7,129.2969 " fill="#FFFFFF" style="stroke:#FFFFFF;stroke-width:1.0;"/><rect height="376.2969" rx="12.5" ry="12.5" style="stroke:#181818;stroke-width:0.5;fill:none;" width="717.3258" x="7" y="103"/><line style="stroke:#181818;stroke-width:0.5;fill:none;" x1="7" x2="724.3258" y1="129.2969" y2="129.2969"/><text fill="#000000" font-family="sans-serif" font-size="14" lengthAdjust="spacing" textLength="56" x="337.6629" y="120.9951">created</text><ellipse cx="336.3258" cy="150.2969" fill="#222222" rx="10" ry="10" style="stroke:none;stroke-width:1.0;"/><g id="created.choosing_card"><rect fill="#F1F1F1" height="50" rx="12.5" ry="12.5" style="stroke:#181818;stroke-width:0.5;" width="122" x="275.3258" y="213.2969"/><line style="stroke:#181818;stroke-width:0.5;" x1="275.3258" x2="397.3258" y1="239.5938" y2="239.5938"/><text fill="#000000" font-family="sans-serif" font-size="14" lengthAdjust="spacing" textLength="102" x="285.3258" y="231.292">choosing_card</text></g><g id="created.chosen_card"><rect fill="#F1F1F1" height="50" rx="12.5" ry="12.5" style="stroke:#181818;stroke-width:0.5;" width="109" x="168.8258" y="316.2969"/><line style="stroke:#181818;stroke-width:0.5;" x1="168.8258" x2="277.8258" y1="342.5938" y2="342.5938"/><text fill="#000000" font-family="sans-serif" font-size="14" lengthAdjust="spacing" textLength="89" x="178.8258" y="334.292">chosen_card</text></g><g id="created.leaved"><rect fill="#F1F1F1" height="50" rx="12.5" ry="12.5" style="stroke:#181818;stroke-width:0.5;" width="67" x="416.8258" y="419.2969"/><line style="stroke:#181818;stroke-width:0.5;" x1="416.8258" x2="483.8258" y1="445.5938" y2="445.5938"/><text fill="#000000" font-family="sans-serif" font-size="14" lengthAdjust="spacing" textLength="47" x="426.8258" y="437.292">leaved</text></g><!--MD5=[1802d5abccc03373c58b248407a3cebc]
link *start*created to choosing_card--><g id="link_*start*created_choosing_card"><path d="M336.3258,160.5009 C336.3258,171.8099 336.3258,191.5459 336.3258,208.1779 " fill="none" id="*start*created-to-choosing_card" style="stroke:#181818;stroke-width:1.0;"/><polygon fill="#181818" points="336.3258,213.2269,340.3258,204.2269,336.3258,208.2269,332.3258,204.2269,336.3258,213.2269" style="stroke:#181818;stroke-width:1.0;"/><text fill="#000000" font-family="sans-serif" font-size="13" lengthAdjust="spacing" textLength="179" x="337.3258" y="191.3638">add a new user to the room</text></g><!--MD5=[8523c7e1e6acf1dd8d564e0e52390cae]
link choosing_card to choosing_card--><g id="link_choosing_card_choosing_card"><path d="M397.6048,229.5449 C408.0738,230.7409 415.3258,233.6579 415.3258,238.2969 C415.3258,242.1379 410.3518,244.7989 402.6968,246.2799 " fill="none" id="choosing_card-to-choosing_card" style="stroke:#181818;stroke-width:1.0;"/><polygon fill="#181818" points="397.6048,247.0489,407.1015,249.6588,402.5486,246.3016,405.9059,241.7487,397.6048,247.0489" style="stroke:#181818;stroke-width:1.0;"/><text fill="#000000" font-family="sans-serif" font-size="13" lengthAdjust="spacing" textLength="210" x="421.3258" y="242.8638">some player refreshes the poker</text></g><!--MD5=[40700053ea40b8e021f5df0a984a50a6]
link choosing_card to chosen_card--><g id="link_choosing_card_chosen_card"><path d="M275.0068,239.3859 C200.2878,240.9519 80.4936,248.6579 52.3261,281.2969 C18,321.0729 101.5668,334.0579 163.5988,338.2819 " fill="none" id="choosing_card-to-chosen_card" style="stroke:#181818;stroke-width:1.0;"/><polygon fill="#181818" points="168.7768,338.6169,160.0551,334.0416,163.7873,338.2926,159.5363,342.0248,168.7768,338.6169" style="stroke:#181818;stroke-width:1.0;"/><text fill="#000000" font-family="sans-serif" font-size="13" lengthAdjust="spacing" textLength="147" x="53.3261" y="294.3638">the user chosen a card</text></g><!--MD5=[5a4294bc6ecfd6b6884cced52b2bcb36]
link chosen_card to choosing_card--><g id="link_chosen_card_choosing_card"><path d="M217.8398,316.2489 C216.5868,304.7069 217.2978,291.2579 224.3258,281.2969 C235.2148,265.8649 252.5038,256.0969 270.2698,249.9159 " fill="none" id="chosen_card-to-choosing_card" style="stroke:#181818;stroke-width:1.0;"/><polygon fill="#181818" points="275.2888,248.2659,265.4898,247.2765,270.5389,249.8273,267.988,254.8764,275.2888,248.2659" style="stroke:#181818;stroke-width:1.0;"/><text fill="#000000" font-family="sans-serif" font-size="13" lengthAdjust="spacing" textLength="210" x="225.3258" y="294.3638">some player refreshes the poker</text></g><!--MD5=[28cd02c5c496d4eb5da60ec2765867f4]
link choosing_card to leaved--><g id="link_choosing_card_leaved"><path d="M397.4358,252.9469 C412.3748,259.1739 426.7898,268.2089 436.3258,281.2969 C464.6888,320.2229 461.4648,379.2165 456.1588,414.2412 " fill="none" id="choosing_card-to-leaved" style="stroke:#181818;stroke-width:1.0;"/><polygon fill="#181818" points="455.3648,419.2296,460.7304,410.9706,456.1511,414.2918,452.8299,409.7125,455.3648,419.2296" style="stroke:#181818;stroke-width:1.0;"/><text fill="#000000" font-family="sans-serif" font-size="13" lengthAdjust="spacing" textLength="99" x="460.3258" y="345.8638">the user leaves</text></g><!--MD5=[16f9110d0c4769975f2bdb4c5d5b9579]
link chosen_card to leaved--><g id="link_chosen_card_leaved"><path d="M265.7388,366.3689 C286.4068,377.6507 311.8208,390.8705 335.3258,401.2969 C360.2538,412.3543 389.0788,422.8774 411.6348,430.6246 " fill="none" id="chosen_card-to-leaved" style="stroke:#181818;stroke-width:1.0;"/><polygon fill="#181818" points="416.6408,432.3337,409.4162,425.64,411.909,430.718,406.8311,433.2109,416.6408,432.3337" style="stroke:#181818;stroke-width:1.0;"/><text fill="#000000" font-family="sans-serif" font-size="13" lengthAdjust="spacing" textLength="99" x="336.3258" y="397.3638">the user leaves</text></g><!--MD5=[63c4f054710b75856a745e0f85ecded1]
link leaved to choosing_card--><g id="link_leaved_choosing_card"><path d="M483.8588,431.0166 C511.0258,419.072 547.4618,398.0394 564.3258,366.2969 C574.7528,346.6729 577.2838,334.3499 564.3258,316.2969 C527.8038,265.4139 455.8688,247.7199 402.5208,241.7929 " fill="none" id="leaved-to-choosing_card" style="stroke:#181818;stroke-width:1.0;"/><polygon fill="#181818" points="397.4178,241.2549,405.9487,246.1767,402.3902,241.7793,406.7877,238.2208,397.4178,241.2549" style="stroke:#181818;stroke-width:1.0;"/><text fill="#000000" font-family="sans-serif" font-size="13" lengthAdjust="spacing" textLength="141" x="573.3258" y="345.8638">the leaved user backs</text></g><!--MD5=[9b71c4725ac9801b7644efa3121aaaab]
link *start to created--><g id="link_*start_created"><path d="M365.5,26.083 C365.5,39.432 365.5,66.215 365.5,97.801 " fill="none" id="*start-to-created" style="stroke:#181818;stroke-width:1.0;"/><polygon fill="#181818" points="365.5,102.911,369.5,93.911,365.5,97.911,361.5,93.911,365.5,102.911" style="stroke:#181818;stroke-width:1.0;"/><text fill="#000000" font-family="sans-serif" font-size="13" lengthAdjust="spacing" textLength="122" x="366.5" y="69.0669">create a new room</text></g><!--MD5=[45061375c9e8a3494a22c18a54018ff0]
link created to closed--><g id="link_created_closed"><path d="M365.5,479.272 C365.5,506.7284 365.5,531.8715 365.5,550.1698 " fill="none" id="created-to-closed" style="stroke:#181818;stroke-width:1.0;"/><polygon fill="#181818" points="365.5,555.6238,369.5,546.6238,365.5,550.6238,361.5,546.6238,365.5,555.6238" style="stroke:#181818;stroke-width:1.0;"/><text fill="#000000" font-family="sans-serif" font-size="13" lengthAdjust="spacing" textLength="111" x="366.5" y="522.0669">expired the room</text></g><!--MD5=[517e2b8ced451bd868ba6a935475eb1c]
@startuml
[*] - -> created: create a new room
state created {
    [*] - -> choosing_card: add a new user to the room
    choosing_card - -> choosing_card: some player refreshes the poker
    choosing_card - -> chosen_card: the user chosen a card
    chosen_card - -> choosing_card: some player refreshes the poker
    choosing_card - -> leaved: the user leaves
    chosen_card - -> leaved: the user leaves
    leaved - -> choosing_card: the leaved user backs
}

created - -> closed: expired the room
@enduml

PlantUML version 1.2022.6beta5(Unknown compile time)
(GPL source distribution)
Java Runtime: Java(TM) SE Runtime Environment
JVM: Java HotSpot(TM) 64-Bit Server VM
Default Encoding: UTF-8
Language: en
Country: US
--></g></svg>