<?xml version="1.0" encoding="UTF-8" standalone="no"?><svg xmlns="http://www.w3.org/2000/svg" xmlns:xlink="http://www.w3.org/1999/xlink" contentStyleType="text/css" height="612px" preserveAspectRatio="none" style="width:790px;height:612px;background:#FFFFFF;" version="1.1" viewBox="0 0 790 612" width="790px" zoomAndPan="magnify"><defs/><g><ellipse cx="392" cy="16" fill="#222222" rx="10" ry="10" style="stroke:none;stroke-width:1.0;"/><g id="closed"><rect fill="#F1F1F1" height="50" rx="12.5" ry="12.5" style="stroke:#181818;stroke-width:0.5;" width="66" x="359" y="556"/><line style="stroke:#181818;stroke-width:0.5;" x1="359" x2="425" y1="582.2969" y2="582.2969"/><text fill="#000000" font-family="sans-serif" font-size="14" lengthAdjust="spacing" textLength="46" x="369" y="573.9951">closed</text></g><path d="M19.5,103 L764.98,103 A12.5,12.5 0 0 1 777.48,115.5 L777.48,129.2969 L7,129.2969 L7,115.5 A12.5,12.5 0 0 1 19.5,103 " fill="#F1F1F1" style="stroke:#F1F1F1;stroke-width:1.0;"/><path d="M7,129.2969 L777.48,129.2969 L777.48,466.7969 A12.5,12.5 0 0 1 764.98,479.2969 L19.5,479.2969 A12.5,12.5 0 0 1 7,466.7969 L7,129.2969 " fill="#FFFFFF" style="stroke:#FFFFFF;stroke-width:1.0;"/><rect height="376.2969" rx="12.5" ry="12.5" style="stroke:#181818;stroke-width:0.5;fill:none;" width="770.48" x="7" y="103"/><line style="stroke:#181818;stroke-width:0.5;fill:none;" x1="7" x2="777.48" y1="129.2969" y2="129.2969"/><text fill="#000000" font-family="sans-serif" font-size="14" lengthAdjust="spacing" textLength="56" x="364.24" y="120.9951">created</text><ellipse cx="326.48" cy="150.2969" fill="#222222" rx="10" ry="10" style="stroke:none;stroke-width:1.0;"/><g id="created.choosing_card"><rect fill="#F1F1F1" height="50" rx="12.5" ry="12.5" style="stroke:#181818;stroke-width:0.5;" width="122" x="265.48" y="213.2969"/><line style="stroke:#181818;stroke-width:0.5;" x1="265.48" x2="387.48" y1="239.5938" y2="239.5938"/><text fill="#000000" font-family="sans-serif" font-size="14" lengthAdjust="spacing" textLength="102" x="275.48" y="231.292">choosing_card</text></g><g id="created.chosen_card"><rect fill="#F1F1F1" height="50" rx="12.5" ry="12.5" style="stroke:#181818;stroke-width:0.5;" width="109" x="117.9796" y="316.2969"/><line style="stroke:#181818;stroke-width:0.5;" x1="117.9796" x2="226.9796" y1="342.5938" y2="342.5938"/><text fill="#000000" font-family="sans-serif" font-size="14" lengthAdjust="spacing" textLength="89" x="127.9796" y="334.292">chosen_card</text></g><g id="created.leaved"><rect fill="#F1F1F1" height="50" rx="12.5" ry="12.5" style="stroke:#181818;stroke-width:0.5;" width="67" x="406.98" y="419.2969"/><line style="stroke:#181818;stroke-width:0.5;" x1="406.98" x2="473.98" y1="445.5938" y2="445.5938"/><text fill="#000000" font-family="sans-serif" font-size="14" lengthAdjust="spacing" textLength="47" x="416.98" y="437.292">leaved</text></g><!--MD5=[1802d5abccc03373c58b248407a3cebc]
link *start*created to choosing_card--><g id="link_*start*created_choosing_card"><path d="M326.48,160.5009 C326.48,171.8099 326.48,191.5459 326.48,208.1779 " fill="none" id="*start*created-to-choosing_card" style="stroke:#181818;stroke-width:1.0;"/><polygon fill="#181818" points="326.48,213.2269,330.48,204.2269,326.48,208.2269,322.48,204.2269,326.48,213.2269" style="stroke:#181818;stroke-width:1.0;"/><text fill="#000000" font-family="sans-serif" font-size="13" lengthAdjust="spacing" textLength="179" x="327.48" y="191.3638">add a new user to the room</text></g><!--MD5=[8523c7e1e6acf1dd8d564e0e52390cae]
link choosing_card to choosing_card--><g id="link_choosing_card_choosing_card"><path d="M387.759,229.5449 C398.227,230.7409 405.48,233.6579 405.48,238.2969 C405.48,242.1379 400.506,244.7989 392.851,246.2799 " fill="none" id="choosing_card-to-choosing_card" style="stroke:#181818;stroke-width:1.0;"/><polygon fill="#181818" points="387.759,247.0489,397.2557,249.6588,392.7028,246.3016,396.0601,241.7487,387.759,247.0489" style="stroke:#181818;stroke-width:1.0;"/><text fill="#000000" font-family="sans-serif" font-size="13" lengthAdjust="spacing" textLength="210" x="411.48" y="242.8638">some player refreshes the poker</text></g><!--MD5=[40700053ea40b8e021f5df0a984a50a6]
link choosing_card to chosen_card--><g id="link_choosing_card_chosen_card"><path d="M265.16,239.3859 C190.442,240.9519 70.6472,248.6579 42.4796,281.2969 C18,309.6629 67.7651,325.1019 112.6251,332.9889 " fill="none" id="choosing_card-to-chosen_card" style="stroke:#181818;stroke-width:1.0;"/><polygon fill="#181818" points="117.7853,333.8679,109.5843,328.4142,112.8562,333.0287,108.2416,336.3007,117.7853,333.8679" style="stroke:#181818;stroke-width:1.0;"/><text fill="#000000" font-family="sans-serif" font-size="13" lengthAdjust="spacing" textLength="147" x="43.4796" y="294.3638">the user chosen a card</text></g><!--MD5=[ef97bad552da32cb2dd95c4ccf6dd5fa]
link chosen_card to chosen_card--><g id="link_chosen_card_chosen_card"><path d="M227.176,332.3709 C237.605,333.4389 244.98,336.4139 244.98,341.2969 C244.98,345.3409 239.922,348.0759 232.261,349.5039 " fill="none" id="chosen_card-to-chosen_card" style="stroke:#181818;stroke-width:1.0;"/><polygon fill="#181818" points="227.176,350.2229,236.6482,352.9206,232.1265,349.5214,235.5258,344.9997,227.176,350.2229" style="stroke:#181818;stroke-width:1.0;"/><text fill="#000000" font-family="sans-serif" font-size="13" lengthAdjust="spacing" textLength="147" x="250.98" y="345.8638">the user chosen a card</text></g><!--MD5=[5a4294bc6ecfd6b6884cced52b2bcb36]
link chosen_card to choosing_card--><g id="link_chosen_card_choosing_card"><path d="M185.138,316.1159 C192.376,304.2579 202.419,290.5699 214.48,281.2969 C227.982,270.9159 244.328,262.8749 260.311,256.7409 " fill="none" id="chosen_card-to-choosing_card" style="stroke:#181818;stroke-width:1.0;"/><polygon fill="#181818" points="265.255,254.8989,255.4248,254.2926,260.5696,256.6445,258.2178,261.7893,265.255,254.8989" style="stroke:#181818;stroke-width:1.0;"/><text fill="#000000" font-family="sans-serif" font-size="13" lengthAdjust="spacing" textLength="210" x="215.48" y="294.3638">some player refreshes the poker</text></g><!--MD5=[28cd02c5c496d4eb5da60ec2765867f4]
link choosing_card to leaved--><g id="link_choosing_card_leaved"><path d="M387.59,252.9469 C402.529,259.1739 416.943,268.2089 426.48,281.2969 C454.842,320.2229 451.619,379.2165 446.313,414.2412 " fill="none" id="choosing_card-to-leaved" style="stroke:#181818;stroke-width:1.0;"/><polygon fill="#181818" points="445.518,419.2296,450.8839,410.9708,446.3045,414.2918,442.9835,409.7124,445.518,419.2296" style="stroke:#181818;stroke-width:1.0;"/><text fill="#000000" font-family="sans-serif" font-size="13" lengthAdjust="spacing" textLength="160" x="451.48" y="345.8638">the user leaves or kicked</text></g><!--MD5=[16f9110d0c4769975f2bdb4c5d5b9579]
link chosen_card to leaved--><g id="link_chosen_card_leaved"><path d="M204.203,366.4209 C221.286,378.41 243.178,392.2344 264.48,401.2969 C309.526,420.4616 364.948,431.8573 401.421,437.8409 " fill="none" id="chosen_card-to-leaved" style="stroke:#181818;stroke-width:1.0;"/><polygon fill="#181818" points="406.662,438.6847,398.4117,433.3057,401.7255,437.8904,397.1409,441.2041,406.662,438.6847" style="stroke:#181818;stroke-width:1.0;"/><text fill="#000000" font-family="sans-serif" font-size="13" lengthAdjust="spacing" textLength="160" x="265.48" y="397.3638">the user leaves or kicked</text></g><!--MD5=[63c4f054710b75856a745e0f85ecded1]
link leaved to choosing_card--><g id="link_leaved_choosing_card"><path d="M474.026,439.4911 C515.625,432.7732 584.898,414.5852 616.48,366.2969 C628.643,347.6989 630.028,333.9119 616.48,316.2969 C589.366,281.0449 469.405,258.5629 392.517,247.4989 " fill="none" id="leaved-to-choosing_card" style="stroke:#181818;stroke-width:1.0;"/><polygon fill="#181818" points="387.517,246.7859,395.8623,252.0161,392.4669,247.4916,396.9915,244.0962,387.517,246.7859" style="stroke:#181818;stroke-width:1.0;"/><text fill="#000000" font-family="sans-serif" font-size="13" lengthAdjust="spacing" textLength="141" x="626.48" y="345.8638">the leaved user backs</text></g><!--MD5=[9b71c4725ac9801b7644efa3121aaaab]
link *start to created--><g id="link_*start_created"><path d="M392,26.083 C392,39.432 392,66.215 392,97.801 " fill="none" id="*start-to-created" style="stroke:#181818;stroke-width:1.0;"/><polygon fill="#181818" points="392,102.911,396,93.911,392,97.911,388,93.911,392,102.911" style="stroke:#181818;stroke-width:1.0;"/><text fill="#000000" font-family="sans-serif" font-size="13" lengthAdjust="spacing" textLength="122" x="393" y="69.0669">create a new room</text></g><!--MD5=[45061375c9e8a3494a22c18a54018ff0]
link created to closed--><g id="link_created_closed"><path d="M392,479.272 C392,506.7284 392,531.8715 392,550.1698 " fill="none" id="created-to-closed" style="stroke:#181818;stroke-width:1.0;"/><polygon fill="#181818" points="392,555.6238,396,546.6238,392,550.6238,388,546.6238,392,555.6238" style="stroke:#181818;stroke-width:1.0;"/><text fill="#000000" font-family="sans-serif" font-size="13" lengthAdjust="spacing" textLength="125" x="393" y="522.0669">the room is expired</text></g><!--MD5=[f48fe2e607e7456ae2cb2c31fc16b4ef]
@startuml
[*] - -> created: create a new room
state created {
    [*] - -> choosing_card: add a new user to the room
    choosing_card - -> choosing_card: some player refreshes the poker
    choosing_card - -> chosen_card: the user chosen a card
    chosen_card - -> chosen_card: the user chosen a card
    chosen_card - -> choosing_card: some player refreshes the poker
    choosing_card - -> leaved: the user leaves or kicked
    chosen_card - -> leaved: the user leaves or kicked
    leaved - -> choosing_card: the leaved user backs
}

created - -> closed: the room is expired
@enduml

PlantUML version 1.2022.7beta1(Unknown compile time)
(GPL source distribution)
Java Runtime: Java(TM) SE Runtime Environment
JVM: Java HotSpot(TM) 64-Bit Server VM
Default Encoding: UTF-8
Language: en
Country: US
--></g></svg>